<?xml version="1.0" standalone="no"?><!DOCTYPE svg PUBLIC "-//W3C//DTD SVG 1.1//EN" "http://www.w3.org/Graphics/SVG/1.1/DTD/svg11.dtd"><svg t="1547798643803" class="icon" style="" viewBox="0 0 1024 1024" version="1.1" xmlns="http://www.w3.org/2000/svg" p-id="6347" xmlns:xlink="http://www.w3.org/1999/xlink" width="20" height="20"><defs><style type="text/css"></style></defs><path d="M877.010763 634.276904c-16.579607 115.161856-134.597511 115.037013-134.597511 115.037013L528.560676 749.313917l95.084589-104.793718-63.461357-0.892323-0.606821-128.242779-83.271542 0.571005-0.01842 128.012536-64.943105-0.696872 117.215632 105.650225-252.668627 0.39295c0 0-126.816291-1.213641-129.49326-122.264625 0-121.212666 119.231545-144.323013 119.231545-144.323013s-9.476839-60.499909 44.205804-93.550653c59.999512-34.657334 104.185874 7.745405 104.185874 7.745405s44.687782-136.025023 191.508685-121.087822c171.270758 21.255093 157.403936 207.677946 157.403936 207.677946S884.916826 508.352937 877.010763 634.276904z" p-id="6348" fill="#515151"></path></svg>