<?xml version="1.0" standalone="no"?><!DOCTYPE svg PUBLIC "-//W3C//DTD SVG 1.1//EN" "http://www.w3.org/Graphics/SVG/1.1/DTD/svg11.dtd"><svg t="1547803704041" class="icon" style="" viewBox="0 0 1024 1024" version="1.1" xmlns="http://www.w3.org/2000/svg" p-id="18018" xmlns:xlink="http://www.w3.org/1999/xlink" width="20" height="20"><defs><style type="text/css"></style></defs><path d="M671.195745 870.885763l-43.603077 0-52.801577-67.25066-8.53028-10.865465c-4.693906-5.979178-14.82873-9.804297-25.977651-9.804297l-56.857962 0c-11.147898 0-21.282722 3.825119-25.977651 9.804297l-8.53028 10.865465-52.801577 67.25066-43.313481 0c-10.205433 0-18.556635 8.350179-18.556635 18.556635 0 10.206456 8.350179 18.556635 18.556635 18.556635l318.391491 0c10.205433 0 18.556635-8.350179 18.556635-18.556635C689.75238 879.236965 681.401178 870.885763 671.195745 870.885763z" p-id="18019" fill="#515151"></path><path d="M512.004093 304.069297c-73.578786 0-133.431965 59.85318-133.431965 133.421732s59.85318 133.421732 133.431965 133.421732c73.569576 0 133.421732-59.85318 133.421732-133.421732S585.573669 304.069297 512.004093 304.069297zM565.758368 451.870528l-37.727253 21.782096-37.728276 21.782096c-11.06808 6.390547-24.904203-1.597381-24.904203-14.378475l0-43.564191 0-43.564191c0-12.781094 13.836123-20.769023 24.904203-14.378475l37.728276 21.782096 37.727253 21.782096C576.827471 429.505148 576.827471 445.479981 565.758368 451.870528z" p-id="18020" fill="#515151"></path><path d="M905.762085 115.999944 118.236891 115.999944c-22.290679 0-40.530089 18.238386-40.530089 40.530089l0 561.92404c0 22.291702 18.238386 40.530089 40.530089 40.530089l787.525194 0c22.291702 0 40.530089-18.238386 40.530089-40.530089L946.292174 156.530033C946.292174 134.23833 928.053788 115.999944 905.762085 115.999944zM512.004093 601.01229c-90.166579 0-163.529447-73.353658-163.529447-163.520237s73.363891-163.520237 163.529447-163.520237 163.520237 73.353658 163.520237 163.520237S602.170672 601.01229 512.004093 601.01229z" p-id="18021" fill="#515151"></path></svg>