<?xml version="1.0" standalone="no"?><!DOCTYPE svg PUBLIC "-//W3C//DTD SVG 1.1//EN" "http://www.w3.org/Graphics/SVG/1.1/DTD/svg11.dtd"><svg t="1547522222656" class="icon" style="" viewBox="0 0 1024 1024" version="1.1" xmlns="http://www.w3.org/2000/svg" p-id="2143" xmlns:xlink="http://www.w3.org/1999/xlink" width="16" height="16"><defs><style type="text/css"></style></defs><path d="M225.60768 448.18432c72.78592-83.31264 179.13856-131.09248 291.77856-131.09248 112.66048 0 219.01312 47.80032 291.77856 131.11296a20.3776 20.3776 0 0 0 28.8768 1.96608 20.48 20.48 0 0 0 1.96608-28.8768c-80.54784-92.2624-198.12352-145.16224-322.62144-145.16224-124.47744 0-242.05312 52.87936-322.62144 145.1008a20.48 20.48 0 0 0 30.84288 26.95168z" fill="#e6e6e6" p-id="2144"></path><path d="M724.31616 529.38752a20.39808 20.39808 0 0 0 28.79488 2.94912 20.48 20.48 0 0 0 2.9696-28.79488c-58.1632-71.49568-145.18272-112.49664-238.6944-112.49664-93.4912 0-180.49024 41.00096-238.6944 112.45568a20.48 20.48 0 1 0 31.76448 25.86624c50.3808-61.87008 125.82912-97.3824 206.92992-97.3824 81.14176 0.02048 156.5696 35.51232 206.92992 97.40288z" fill="#e6e6e6" p-id="2145"></path><path d="M637.41952 608.72704a20.52096 20.52096 0 0 0 33.60768-23.4496c-34.67264-49.68448-92.09856-79.33952-153.64096-79.33952-62.464 0-120.36096 30.35136-154.91072 81.18272a20.50048 20.50048 0 0 0 33.8944 23.04c26.91072-39.6288 72.15104-63.26272 121.0368-63.26272 48.128 0 93.02016 23.12192 120.0128 61.82912z" fill="#e6e6e6" p-id="2146"></path><path d="M476.42624 686.36672a40.96 40.32512 0 1 0 81.92 0 40.96 40.32512 0 1 0-81.92 0Z" fill="#e6e6e6" p-id="2147"></path></svg>