<?xml version="1.0" standalone="no"?><!DOCTYPE svg PUBLIC "-//W3C//DTD SVG 1.1//EN" "http://www.w3.org/Graphics/SVG/1.1/DTD/svg11.dtd"><svg t="1547715445391" class="icon" style="" viewBox="0 0 1024 1024" version="1.1" xmlns="http://www.w3.org/2000/svg" p-id="13566" xmlns:xlink="http://www.w3.org/1999/xlink" width="20" height="20"><defs><style type="text/css"></style></defs><path d="M844.8 808.96l-199.68-199.68c102.4-120.32 97.28-302.08-17.92-414.72-58.88-58.88-138.24-89.6-217.6-89.6-79.36 0-156.16 30.72-217.6 89.6-120.32 120.32-120.32 314.88 0 435.2 58.88 58.88 138.24 89.6 217.6 89.6 71.68 0 140.8-25.6 197.12-71.68l199.68 199.68c10.24 10.24 25.6 10.24 35.84 0s12.8-30.72 2.56-38.4z m-616.96-217.6c-99.84-99.84-99.84-261.12 0-360.96 48.64-48.64 112.64-74.24 181.76-74.24 69.12 0 133.12 25.6 181.76 74.24 48.64 48.64 74.24 112.64 74.24 181.76 0 69.12-25.6 133.12-74.24 181.76-48.64 48.64-112.64 74.24-181.76 74.24-69.12-2.56-133.12-28.16-181.76-76.8z" fill="#E91E63" p-id="13567"></path></svg>