<?xml version="1.0" standalone="no"?><!DOCTYPE svg PUBLIC "-//W3C//DTD SVG 1.1//EN" "http://www.w3.org/Graphics/SVG/1.1/DTD/svg11.dtd"><svg t="1547537623582" class="icon" style="" viewBox="0 0 1024 1024" version="1.1" xmlns="http://www.w3.org/2000/svg" p-id="9846" xmlns:xlink="http://www.w3.org/1999/xlink" width="16" height="16"><defs><style type="text/css"></style></defs><path d="M800 768H224a32 32 0 0 1-32-32V384a32 32 0 0 1 32-32h64a32 32 0 1 1 0 64H256v288h512v-288h-32a32 32 0 0 1 0-64h64a32 32 0 0 1 32 32v352a32 32 0 0 1-32 32z m-320-236.8V288a32 32 0 1 1 64 0v242.56l40.96-40.96a32 32 0 0 1 45.12 45.12L537.6 627.2a31.936 31.936 0 0 1-25.6 12.8 32 32 0 0 1-22.72-9.28l-96-96a32 32 0 0 1 45.12-45.12l41.6 41.6z" p-id="9847" fill="#e6e6e6"></path></svg>