<?xml version="1.0" standalone="no"?><!DOCTYPE svg PUBLIC "-//W3C//DTD SVG 1.1//EN" "http://www.w3.org/Graphics/SVG/1.1/DTD/svg11.dtd"><svg t="1547537058922" class="icon" style="" viewBox="0 0 1024 1024" version="1.1" xmlns="http://www.w3.org/2000/svg" p-id="4021" xmlns:xlink="http://www.w3.org/1999/xlink" width="13" height="13"><defs><style type="text/css"></style></defs><path d="M823.41635 776.954627 672.262243 625.80052c37.762942-47.280432 58.333-105.511093 58.333-166.914251 0-71.637018-27.938437-138.975815-78.493704-189.63342-50.657605-50.657605-117.996402-78.493704-189.63342-78.493704s-138.975815 27.938437-189.63342 78.493704c-50.657605 50.657605-78.493704 117.996402-78.493704 189.63342s27.938437 138.975815 78.493704 189.63342c50.657605 50.657605 117.996402 78.493704 189.63342 78.493704 61.198481 0 119.122127-20.365381 166.30022-57.821307l151.256446 151.256446c6.037977 6.037977 13.815711 9.005797 21.695783 9.005797s15.760144-2.967819 21.695783-9.005797C835.389966 808.372576 835.389966 788.928243 823.41635 776.954627zM239.267639 458.78393c0-123.010993 100.087148-223.098141 223.098141-223.098141s223.098141 100.087148 223.098141 223.098141-100.087148 223.098141-223.098141 223.098141S239.267639 581.794923 239.267639 458.78393z" p-id="4022" fill="#515151"></path></svg>