<?xml version="1.0" standalone="no"?><!DOCTYPE svg PUBLIC "-//W3C//DTD SVG 1.1//EN" "http://www.w3.org/Graphics/SVG/1.1/DTD/svg11.dtd"><svg t="1547463451857" class="icon" style="" viewBox="0 0 1024 1024" version="1.1" xmlns="http://www.w3.org/2000/svg" p-id="11870" xmlns:xlink="http://www.w3.org/1999/xlink" width="32" height="32"><defs><style type="text/css"></style></defs><path d="M479.9 538c98.2 0 178.1-79.9 178.1-178.1 0-98.2-79.9-178.1-178.1-178.1s-178.1 79.9-178.1 178.1c0 98.2 79.9 178.1 178.1 178.1z m0-305.5c70.3 0 127.5 57.2 127.5 127.5s-57.2 127.5-127.5 127.5S352.4 430.3 352.4 360s57.2-127.5 127.5-127.5zM699.5 791.5H182.8c34.5-90.9 157.1-155.5 299-155.5 49.5 0 98.8 8.1 142.5 23.5 13.2 4.6 27.6-2.3 32.3-15.5 4.6-13.2-2.3-27.6-15.5-32.3-49.7-17.5-103.3-26.3-159.3-26.3-171.5 0-319.7 86.9-352.4 206.6-3.3 12-0.8 24.6 6.7 34.5 7.6 9.9 19.1 15.6 31.6 15.6h531.8c14 0 25.3-11.3 25.3-25.3 0-13.9-11.3-25.3-25.3-25.3z" p-id="11871" fill="#e6e6e6"></path><path d="M870.7 681.8h-84.4v-84.4c0-14-11.3-25.3-25.3-25.3s-25.3 11.3-25.3 25.3v84.4h-84.4c-14 0-25.3 11.3-25.3 25.3s11.3 25.3 25.3 25.3h84.4v84.4c0 14 11.3 25.3 25.3 25.3s25.3-11.3 25.3-25.3v-84.4h84.4c14 0 25.3-11.3 25.3-25.3 0-13.9-11.3-25.3-25.3-25.3z" p-id="11872" fill="#e6e6e6"></path></svg>