<?xml version="1.0" standalone="no"?><!DOCTYPE svg PUBLIC "-//W3C//DTD SVG 1.1//EN" "http://www.w3.org/Graphics/SVG/1.1/DTD/svg11.dtd"><svg t="1547475048292" class="icon" style="" viewBox="0 0 1024 1024" version="1.1" xmlns="http://www.w3.org/2000/svg" p-id="25897" xmlns:xlink="http://www.w3.org/1999/xlink" width="32" height="32"><defs><style type="text/css"></style></defs><path d="M142.933333 960c-6.4 0-14.933333-2.133333-21.333333-8.533333-8.533333-8.533333-12.8-19.2-10.666667-29.866667 10.666667-57.6 19.2-128 14.933334-149.333333-68.266667-76.8-106.666667-172.8-106.666667-270.933334C21.333333 260.266667 241.066667 64 512 64c270.933333 0 490.666667 196.266667 490.666667 437.333333S782.933333 938.666667 512 938.666667c-70.4 0-138.666667-12.8-202.666667-38.4-23.466667 8.533333-91.733333 34.133333-153.6 57.6-4.266667 2.133333-8.533333 2.133333-12.8 2.133333zM512 128C277.333333 128 85.333333 296.533333 85.333333 501.333333c0 85.333333 32 166.4 91.733334 232.533334 6.4 8.533333 23.466667 27.733333 6.4 145.066666 123.733333-46.933333 125.866667-46.933333 138.666666-40.533333 59.733333 25.6 121.6 38.4 187.733334 38.4 234.666667 0 426.666667-168.533333 426.666666-373.333333S746.666667 128 512 128z" fill="#1afa29" p-id="25898"></path><path d="M682.666667 458.666667m-32 0a32 32 0 1 0 64 0 32 32 0 1 0-64 0Z" fill="#1afa29" p-id="25899"></path><path d="M330.666667 458.666667m-32 0a32 32 0 1 0 64 0 32 32 0 1 0-64 0Z" fill="#1afa29" p-id="25900"></path></svg>