<?xml version="1.0" standalone="no"?><!DOCTYPE svg PUBLIC "-//W3C//DTD SVG 1.1//EN" "http://www.w3.org/Graphics/SVG/1.1/DTD/svg11.dtd"><svg t="1547714562443" class="icon" style="" viewBox="0 0 1024 1024" version="1.1" xmlns="http://www.w3.org/2000/svg" p-id="12626" xmlns:xlink="http://www.w3.org/1999/xlink" width="20" height="20"><defs><style type="text/css"></style></defs><path d="M426.13287 561.952092c-152.466513 0-276.511568-124.045055-276.511568-276.511568S273.666357 8.939172 426.13287 8.939172C578.589167 8.939172 702.634222 132.984227 702.634222 285.440524c0 152.466513-124.034839 276.511568-276.501352 276.511568z m0-512.148135c-129.9398 0-235.646783 105.706983-235.646783 235.636567 0 129.9398 105.706983 235.646783 235.646783 235.646783 129.929584 0 235.636567-105.706983 235.636567-235.646783 0-129.929584-105.706983-235.636567-235.636567-235.636567z" fill="#e6e6e6" p-id="12627"></path><path d="M837.84558 1024h-823.425419l-2.60513-17.408398a423.389822 423.389822 0 0 1-4.668802-62.523122c0-231.029062 187.957579-418.986641 418.986641-418.986641s418.976425 187.947363 418.976425 418.986641a421.418096 421.418096 0 0 1-4.668801 62.533338l-2.594914 17.398182z m-787.821975-40.864785h752.208315c1.338322-12.984785 2.012591-26.071733 2.01259-39.066735 0-208.492133-169.629723-378.121856-378.11164-378.121856-208.50235 0-378.121856 169.629723-378.121856 378.121856 0 12.995002 0.674269 26.071733 2.012591 39.066735zM796.112418 391.208803H1012.593617v40.864786H796.112418zM796.112418 611.163509H1012.593617v40.864785H796.112418zM753.42915 501.196372H1012.593617v40.864786H753.42915z" fill="#e6e6e6" p-id="12628"></path></svg>