<?xml version="1.0" standalone="no"?><!DOCTYPE svg PUBLIC "-//W3C//DTD SVG 1.1//EN" "http://www.w3.org/Graphics/SVG/1.1/DTD/svg11.dtd"><svg t="1547791536869" class="icon" style="" viewBox="0 0 1024 1024" version="1.1" xmlns="http://www.w3.org/2000/svg" p-id="2172" xmlns:xlink="http://www.w3.org/1999/xlink" width="16" height="16"><defs><style type="text/css"></style></defs><path d="M960 377.6V320c0-108.8-83.2-192-179.2-192H179.2C83.2 128 0 211.2 0 320v384c0 108.8 83.2 192 179.2 192h601.6c102.4 0 179.2-83.2 179.2-192v-51.2h-64V704c0 70.4-51.2 128-115.2 128H179.2c-64 0-115.2-57.6-115.2-128V320c0-70.4 51.2-128 115.2-128h601.6c64 0 115.2 57.6 115.2 128v57.6h64z" p-id="2173" fill="#FAFAFA"></path><path d="M640 384c-38.4 0-64 25.6-64 64v128c0 38.4 25.6 64 64 64h256c38.4 0 64-25.6 64-64v-128c0-38.4-25.6-64-64-64h-256z m0-64h256c70.4 0 128 57.6 128 128v128c0 70.4-57.6 128-128 128h-256c-70.4 0-128-57.6-128-128v-128c0-70.4 57.6-128 128-128z" p-id="2174" fill="#FAFAFA"></path></svg>