<?xml version="1.0" standalone="no"?><!DOCTYPE svg PUBLIC "-//W3C//DTD SVG 1.1//EN" "http://www.w3.org/Graphics/SVG/1.1/DTD/svg11.dtd"><svg t="1547347290165" class="icon" style="" viewBox="0 0 1024 1024" version="1.1" xmlns="http://www.w3.org/2000/svg" p-id="7814" data-spm-anchor-id="a313x.7781069.0.i24" xmlns:xlink="http://www.w3.org/1999/xlink" width="25" height="25"><defs><style type="text/css"></style></defs><path d="M853.068468 915.604244 153.175123 915.604244c-53.357232 0-89.143273-42.561351-89.143273-95.91756L64.03185 203.559139c0-53.358255 35.786041-97.621365 89.143273-97.621365l258.389932 0c12.882402 0 24.102954 8.819876 27.128871 21.348214l28.628014 118.248148 385.745505 0c53.357232 0 104.383372 44.264133 104.383372 97.622388l0 476.531184C957.45184 873.042893 906.424676 915.604244 853.068468 915.604244zM153.175123 161.7755c-22.575158 0-33.3035 19.221784-33.3035 41.783639l0 616.127546c0 22.575158 10.728342 40.078811 33.3035 40.078811l699.892321 0c22.560832 0 48.544623-17.503653 48.544623-40.078811L901.612067 343.155501c0-22.561855-25.984814-41.783639-48.544623-41.783639L445.347462 301.371862c-12.882402 0-24.101931-8.820899-27.128871-21.348214l-28.628014-118.248148L153.175123 161.7755z" p-id="7815"></path><path d="M800.595372 817.886689 656.677589 817.886689c-7.715729 0-13.959943-6.244214-13.959943-13.959943s6.244214-13.959943 13.959943-13.959943l143.918807 0c13.81054 0 31.219026-1.500167 31.219026-32.064276l0-50.842968c0-7.715729 6.244214-13.959943 13.959943-13.959943 7.702426 0 13.959943 6.244214 13.959943 13.959943l0 50.842968C859.733261 798.255583 834.772776 817.886689 800.595372 817.886689z" p-id="7816"></path><path d="M839.25895 656.948253c-3.62762 0-7.254218-1.540076-9.911744-4.048199-2.508123-2.659573-4.049223-6.285147-4.049223-9.911744 0-3.6399 1.541099-7.266497 4.049223-9.911744 5.316076-5.16565 14.518668-5.16565 19.835767 0 2.5071 2.645247 4.033873 6.271844 4.033873 9.911744 0 3.626597-1.526773 7.252171-4.033873 9.911744C846.523401 655.408177 842.897827 656.948253 839.25895 656.948253z" p-id="7817"></path><path d="M880.032586 189.694363 531.040147 189.694363c-15.417131 0-27.918863-12.500709-27.918863-27.919886s12.501732-27.919886 27.918863-27.919886l348.992439 0c15.417131 0 27.918863 12.500709 27.918863 27.919886S895.45074 189.694363 880.032586 189.694363z" p-id="7818"></path></svg>